# xmcd
#
# Track frame offsets:
#	150
#	14657
#	35063
#	61465
#	80300
#	100480
#	124167
#	148636
#	168297
#	184356
#	205362
#	230909
#	248547
#
# Disc length: 3529 seconds
#
# Revision: 1
# Processed by: cddbd v1.5.2PL0 Copyright (c) Steve Scherf et al.
# Submitted via: audiograbber 1.83.01
#
DISCID=be0dc70d
DTITLE=The Captain Legendary Band - My Saving Grace
DYEAR=2006
DGENRE=Country Rock
TTITLE0=Train Song
TTITLE1=Back In Texas
TTITLE2=Monnshiner's Prayer
TTITLE3=Where Did I Go Wrong
TTITLE4=Lost In A Song
TTITLE5=Brianna
TTITLE6=Until The End
TTITLE7=Back Home
TTITLE8=Waves Of Pontchartrain
TTITLE9=Put Me In My Place
TTITLE10=In The Stars
TTITLE11=I Can't Change
TTITLE12=Bueche's Bar Melody (Let's Get Drunk Before We Go To Prison)
EXTD=
EXTT0=
EXTT1=
EXTT2=
EXTT3=
EXTT4=
EXTT5=
EXTT6=
EXTT7=
EXTT8=
EXTT9=
EXTT10=
EXTT11=
EXTT12=
PLAYORDER=
